<svg t="1766997448397" class="icon" viewBox="0 0 1024 1024" version="1.1" xmlns="http://www.w3.org/2000/svg" p-id="5622" width="200" height="200"><path d="M880 512c0 34.24-27.76 62-62 62H604l-92-186.02 99.3-171.99c17.12-29.652 55.038-39.814 84.692-22.694l0.012 0.006c29.656 17.12 39.816 55.04 22.696 84.694L619.4 450H818c34.24 0 62 27.76 62 62z" fill="#1A73E8" p-id="5623"></path><path d="M696.004 830.698l-0.012 0.006c-29.654 17.12-67.57 6.96-84.69-22.694L512 636.02l-99.3 171.99c-17.12 29.652-55.038 39.814-84.692 22.694l-0.012-0.006c-29.654-17.12-39.816-55.04-22.696-84.694L404.6 574l107.4-4 107.4 4 99.3 172.004c17.12 29.656 6.96 67.574-22.696 84.694z" fill="#EA4335" p-id="5624"></path><path d="M512 387.98L484 464l-79.4-14-99.3-172.004c-17.12-29.656-6.96-67.574 22.696-84.694l0.012-0.006c29.654-17.12 67.57-6.96 84.69 22.694L512 387.98z" fill="#FBBC04" p-id="5625"></path><path d="M496 450l-72 124H206c-34.24 0-62-27.76-62-62 0-34.24 27.76-62 62-62h290z" fill="#34A853" p-id="5626"></path><path d="M619.4 574H404.6l107.4-186.02z" fill="#185DB7" p-id="5627"></path></svg>
