<svg width="165px" height="24px" viewBox="0 0 165 24" version="1.1" xmlns="http://www.w3.org/2000/svg" xmlns:xlink="http://www.w3.org/1999/xlink">
    <title>cregis-logo-horizontal</title>
    <g id="控件" stroke="none" stroke-width="1" fill="none" fill-rule="evenodd">
        <g id="LOGO" transform="translate(-4, -8)" fill-rule="nonzero">
            <g id="cregis-logo-horizontal" transform="translate(4, 8)">
                <path d="M137.335538,4.45000295 C137.592351,4.44953689 137.66334,4.5040615 137.65694,4.766771 C137.636912,5.58227979 137.639756,6.39873272 137.655873,7.21435954 C137.660377,7.44201749 137.593181,7.48320599 137.378438,7.48285194 C133.379272,7.4762429 129.380224,7.47577082 125.381058,7.48013751 C124.299523,7.48131769 123.463781,7.94454085 122.900496,8.8674466 C122.655889,9.26835592 122.53086,9.71127987 122.529793,10.1833544 C122.527542,11.1468586 122.519601,12.1103628 122.530267,13.0736309 C122.54674,14.5622 123.705545,15.7801523 125.196062,15.7965569 C127.95074,15.8267697 130.705892,15.8068245 133.460808,15.8137876 C133.637983,15.8142597 133.669507,15.7497035 133.667966,15.5925027 C133.660737,14.8651538 133.655641,14.1373329 133.670099,13.41022 C133.674484,13.1914135 133.596266,13.1549457 133.399537,13.1561259 C132.115823,13.1637972 130.832226,13.1596665 129.54851,13.1594304 L129.188354,13.1594304 C129.621158,12.409304 130.025045,11.7053228 130.43308,11.003938 C130.600417,10.7163266 130.71407,10.3253309 130.967329,10.1801679 C131.220706,10.0346509 131.61772,10.1321344 131.951802,10.1317803 C133.748909,10.13001 135.546134,10.1353209 137.343241,10.1255253 C137.575642,10.1242271 137.657532,10.1601048 137.656466,10.4195097 C137.645208,13.1328762 137.647104,15.8463608 137.654214,18.5597273 C137.654688,18.7800681 137.61238,18.8556 137.369195,18.8551323 C132.906056,18.8467486 128.442799,18.8526495 123.979661,18.8476928 C121.354161,18.8448603 119.255561,17.1857543 118.650087,14.6483535 C118.560729,14.2738804 118.529797,13.8898478 118.531101,13.5077035 C118.535842,12.1120151 118.49211,10.7158545 118.555989,9.32063818 C118.660871,7.02836216 120.686704,4.83510378 122.973263,4.52589495 C123.3365,4.4767992 123.699263,4.45638197 124.064515,4.45638197 C128.488189,4.45638197 132.911863,4.45874234 137.335538,4.45000295 Z M114.25322,10.1248027 C114.492139,10.1244513 114.541202,10.1927841 114.537765,10.4151312 C114.524729,11.230758 114.522003,12.0469749 114.539069,12.8624837 C114.544284,13.1070184 114.484316,13.1666178 114.236036,13.1660277 C110.040141,13.1571763 105.844008,13.1630772 101.648113,13.1518655 C101.35136,13.1510393 101.291513,13.2356586 101.300164,13.5111142 C101.321022,14.1788636 101.320192,14.8480293 101.300282,15.5158968 C101.292698,15.7677486 101.367715,15.8166083 101.608886,15.8161362 C106.436802,15.808465 111.264718,15.8135398 116.092516,15.802682 C116.38998,15.802092 116.444731,15.8869474 116.438095,16.1603966 C116.418897,16.9561963 116.42103,17.7529401 116.437384,18.5487398 C116.442362,18.79115 116.384055,18.8562964 116.133402,18.8554855 C113.0431,18.8457927 109.952916,18.8490972 106.862732,18.8492152 C103.782384,18.8492152 100.702036,18.8459106 97.621689,18.8553522 C97.3642822,18.8561783 97.2947161,18.8005915 97.2957594,18.5350496 C97.3072786,15.8319507 97.3065671,13.1287338 97.2966129,10.4256349 C97.2957594,10.1744912 97.3677196,10.1249234 97.6074675,10.1252774 C103.156052,10.1323585 108.704636,10.1324766 114.25322,10.1248027 Z M143.46024,4.45057631 C143.688967,4.44825049 143.750712,4.50348321 143.749785,4.73609795 L143.743306,8.20018102 L143.743956,11.6642641 C143.743956,13.9638573 143.740757,16.2634504 143.749053,18.5629256 C143.750001,18.7882232 143.700819,18.8579722 143.462256,18.8552998 C142.307599,18.8414496 141.152705,18.8445181 139.997931,18.8533694 C139.803572,18.8547857 139.750716,18.8026215 139.750953,18.6075366 C139.756523,13.9690501 139.756523,9.33068156 139.750594,4.69219502 C139.750242,4.49569398 139.806298,4.45057631 139.995916,4.45202708 C141.150691,4.46052443 142.305584,4.4628848 143.46024,4.45057631 Z M76.2937901,4.45143699 C81.1610522,4.45899019 86.0284328,4.43715674 90.8954578,4.46913979 C93.1909046,4.48424617 95.0155056,6.23823918 95.1913765,8.51906738 C95.2637869,9.45967593 95.2787194,10.4086638 94.9113341,11.308792 C94.4224747,12.5066812 93.5687188,13.3511045 92.3607324,13.8215268 C92.1043923,13.9213706 92.1169545,13.9998529 92.2378361,14.2056775 C93.0876811,15.652822 93.9253195,17.1070477 94.7662762,18.559267 C94.8141548,18.6419981 94.85753,18.7275616 94.9230667,18.8490028 L93.7790765,18.8490028 C92.7029932,18.8491208 91.6267915,18.8471145 90.5507082,18.8515992 C90.4022135,18.8523073 90.3071674,18.8272873 90.2220761,18.6798821 C88.7866664,16.1885086 87.3427239,13.7019739 85.901033,11.214141 C85.8829008,11.1828661 85.869272,11.1491127 85.8344297,11.0765313 L88.7679194,11.0768798 C89.089463,11.0767747 89.4102732,11.0765608 89.7310836,11.0761772 C90.6444507,11.0749971 91.2065501,10.5197194 91.2144904,9.61286413 C91.2168606,9.34755823 91.2232603,9.08166223 91.2110535,8.81682841 C91.1763297,8.05419197 90.5994164,7.48250969 89.8360847,7.48109346 C86.657017,7.47483848 83.4779495,7.4813295 80.2990005,7.47141593 C80.059489,7.47070782 80.080347,7.58754627 80.080347,7.74038041 C80.0816506,10.3156652 80.0811766,12.8910679 80.0811766,15.4663526 C80.0811766,16.5083391 80.075725,17.5503257 80.08568,18.5920762 C80.0875762,18.7974286 80.0310463,18.8557299 79.8227033,18.8540356 C78.6577365,18.843928 77.4926512,18.8452262 76.3278029,18.8533694 C76.1391328,18.8547857 76.0788105,18.8113549 76.0790461,18.6126114 C76.0848546,13.9729447 76.0841435,9.33351401 76.0809437,4.69396529 C76.0808252,4.53523022 76.0886469,4.45106694 76.2937901,4.45143699 Z M60.2435581,4.45625215 C64.65704,4.45648819 69.0704035,4.45625215 73.4838856,4.45672422 C73.5413635,4.45672422 73.5990786,4.46156299 73.6562011,4.4641594 C73.6748073,4.5749789 73.6001452,4.63835491 73.5580736,4.71164449 C73.0681476,5.56208679 72.5695703,6.40769034 72.0877031,7.26261736 C71.9917088,7.43303627 71.8854041,7.48248608 71.6954304,7.48213203 C68.3681051,7.47611307 65.0407798,7.47457884 61.7134546,7.47965364 C60.3365895,7.48177797 59.253751,8.32820764 58.9335333,9.63195955 C58.9101866,9.72672852 58.8898027,9.82432993 58.8858918,9.92145931 C58.8381317,11.109671 58.7904901,12.3009511 58.9048536,13.485032 C59.0196911,14.6738338 60.1553856,15.7106275 61.3535356,15.7943027 C61.5305915,15.8068127 61.7085956,15.8097632 61.8862442,15.8097632 L73.7090571,15.8104713 C73.5030843,16.1670056 73.3233026,16.4792829 73.1426912,16.7910882 C72.7837203,17.41104 72.4188238,18.0278055 72.0689783,18.6528322 C71.9855462,18.8018897 71.8931073,18.8531098 71.7231621,18.8528738 C67.9021184,18.847917 64.0810748,18.8618432 60.2601496,18.8447305 C57.2012526,18.8310403 54.8847108,16.5007624 54.8677637,13.4552914 C54.86089,12.2265993 54.8584013,10.9976712 54.8693044,9.76897918 C54.89194,7.21092519 56.6174656,5.10736098 59.1269439,4.56364912 C59.4949217,4.48398653 59.8677585,4.45625215 60.2435581,4.45625215 Z M163.612128,4.4572317 C163.639741,4.4572317 163.667472,4.46608311 163.698997,4.47139394 C163.712507,4.59472342 163.622438,4.6724977 163.571834,4.76065762 C163.093285,5.59481337 162.602055,6.42188798 162.12955,7.25958428 C162.033082,7.43035725 161.929029,7.48275752 161.736922,7.48240347 C158.202083,7.4762665 154.667126,7.47768272 151.132288,7.4781548 C150.247956,7.47827282 149.849402,7.87540554 149.84881,8.75358222 C149.84881,8.83230066 149.84798,8.91090107 149.849165,8.98950148 C149.858883,9.69631511 150.287894,10.1281453 150.994933,10.1294435 C152.673528,10.132512 154.352123,10.1307417 156.030718,10.1308597 C157.620429,10.1309778 159.210141,10.1269651 160.799853,10.1319219 C162.909355,10.1385309 164.593875,11.5100255 164.917175,13.5864455 C165.189988,15.3378421 164.823077,16.9157513 163.302813,18.0490843 C162.584278,18.5847709 161.764654,18.8445299 160.873448,18.8457101 C156.331381,18.8522011 151.789315,18.8488965 147.247367,18.8487785 C147.211339,18.8487785 147.17543,18.845356 147.137506,18.8432317 C147.123877,18.7170697 147.20328,18.6450784 147.249381,18.5649437 C147.734329,17.7228807 148.231603,16.8878989 148.706715,16.040407 C148.809583,15.85677 148.922524,15.80614 149.121505,15.8064941 C152.666299,15.8120409 156.211092,15.8109788 159.755886,15.8103887 C160.413269,15.8102707 160.820237,15.5507477 160.946096,15.0178935 C161.027513,14.672453 161.023603,14.311906 160.947873,13.9657574 C160.851524,13.5249577 160.509855,13.2384085 160.058801,13.1811694 C159.922394,13.1639388 159.783499,13.1602801 159.64567,13.1602801 C156.476083,13.159454 153.306616,13.1609883 150.137029,13.1598081 C148.338264,13.159218 146.967679,12.3944572 146.239782,10.7505756 C145.367657,8.78119858 145.782092,5.9768397 148.238596,4.83052466 C148.724848,4.60369284 149.238594,4.46513895 149.77865,4.46454886 C154.389809,4.45982812 159.000969,4.45888397 163.612128,4.4572317 Z M116.12961,4.45050097 C116.369715,4.44980833 116.443666,4.49677975 116.438095,4.7491036 C116.419844,5.58408547 116.425414,6.41989347 116.435725,7.25522939 C116.437977,7.43603394 116.393653,7.48253329 116.208894,7.48229725 C109.989773,7.47686839 103.770415,7.47651434 97.5511754,7.48277051 C97.3328773,7.48300536 97.2956645,7.41290229 97.2982719,7.21604721 C97.3090561,6.39062485 97.3123741,5.56473042 97.2967313,4.73942608 C97.292228,4.50350681 97.3616757,4.45063447 97.5902841,4.45122456 C100.680112,4.45877775 103.770059,4.45629936 106.860007,4.45629936 C109.949953,4.45629936 113.039782,4.45924983 116.12961,4.45050097 Z" id="cregis-font" fill="currentColor"></path>
                <g id="cregis-img" transform="translate(0, 0)">
                    <path d="M24.3369068,0.0167003145 C24.1104544,0.470269968 23.8950713,0.90304083 23.6785918,1.33523973 C22.9856067,2.71861936 22.2907418,4.10095907 21.6022471,5.48657459 C21.5489365,5.59394835 21.4886815,5.62083079 21.3758469,5.6207268 C18.2088025,5.61771097 15.0417582,5.61864691 11.8747659,5.61823094 C10.7483519,5.61807494 9.68610882,5.8703123 8.71571034,6.44690681 C7.0963954,7.40911092 6.08615759,8.81224941 5.75459824,10.6643818 C5.55675914,11.7697337 5.56177168,12.8871487 5.89870908,13.9687379 C6.56892887,16.1201129 8.00685213,17.5184157 10.1753546,18.1628142 C10.7196863,18.3246289 11.2814053,18.3804736 11.8496511,18.3790177 C12.9024432,18.3762099 13.9551833,18.3793817 15.0079756,18.3764699 C15.1157977,18.3761579 15.1428967,18.3865052 15.0870277,18.4976228 C14.184142,20.2928706 13.2851724,22.0900942 12.3859417,23.8871618 C12.3564929,23.9459703 12.3356073,23.9930796 12.2487754,23.9951075 C10.7801502,24.0296334 9.34243582,23.8471761 7.95521242,23.3565326 C5.16765989,22.3707218 3.02620426,20.6018886 1.54760624,18.0486809 C0.736930597,16.6489742 0.248311335,15.1404379 0.0843591569,13.5323272 C-0.0484212218,12.2297509 -0.0350022059,10.9280065 0.200535461,9.63702549 C0.556426559,7.68609883 1.3644915,5.93640045 2.61162455,4.39053025 C3.64640297,3.10792075 4.89922736,2.08779201 6.36409308,1.32588027 C7.52011258,0.724587196 8.7441148,0.330866066 10.0324447,0.135461416 C10.6353606,0.0439987289 11.2428191,0.00458501827 11.8524706,0.0043770303 C14.2712351,0.00349308168 16.6900519,-0.00675032327 19.1087642,0.00754884615 C20.8094809,0.0176362602 22.5101454,0.00879677364 24.2107576,0.0167003145 C24.2451666,0.0168563055 24.2795757,0.0167003145 24.3369068,0.0167003145" id="路径" fill="currentColor"></path>
                    <path d="M21.9336812,18.381693 L22.99052,18.3850087 L24.0473589,18.3845242 C24.111269,18.3845242 24.1760144,18.3793765 24.2423262,18.4103147 C23.9141608,19.0650606 23.5868308,19.7176747 23.2600752,20.3704968 L21.4974848,23.8942801 C21.468036,23.9532447 21.4448008,24.00025 21.3580732,23.9997385 C20.5882812,23.9952062 19.818437,23.9970262 19.0486449,23.9966102 C19.035957,23.9966102 19.0232689,23.9923984 18.9950733,23.9873548 C19.3210458,23.3365086 19.6400215,22.6997535 19.958945,22.0629465 C20.5528801,20.8771554 21.1479638,19.6918842 21.7382961,18.5042732 C21.7833569,18.4136425 21.8309238,18.3809884 21.9336812,18.381693 Z M17.4837564,18.3816426 C18.235378,18.38702 18.9871039,18.3845242 19.7366891,18.3845242 C19.7568438,18.4237819 19.7299013,18.4473365 19.7174222,18.4722951 C18.8137532,20.2800221 17.9093011,22.0874371 17.0049013,23.8949041 C16.9759224,23.9527767 16.9525827,24.000562 16.8648109,24.0000001 C16.1124584,23.9950503 15.3600536,23.9971302 14.6076489,23.9967662 C14.5866588,23.9967662 14.5656166,23.9930224 14.5302676,23.9896426 C14.6395517,23.7705273 14.7443975,23.5591596 14.8501833,23.3482599 C15.6597623,21.7353655 16.4702292,20.1229392 17.2774064,18.508849 C17.3237725,18.4161383 17.376561,18.3809364 17.4837564,18.3816426 Z M34.0857748,0.00714786564 C34.1779326,0.00714786564 34.221427,0.0370467327 34.2618406,0.117642051 C36.5042261,4.58860234 38.7498488,9.05805473 40.9923387,13.528963 C41.2805603,14.1036336 41.5949412,14.666189 41.8348127,15.2639462 C42.2239641,16.2339499 42.3768991,17.2405074 42.2486613,18.2781591 C41.9676975,20.5515191 40.8025928,22.2308136 38.7736062,23.3043433 C38.046212,23.6891729 37.2595548,23.8991887 36.4359823,23.9681887 C36.1969985,23.9882594 35.9583279,23.9921072 35.719292,23.9921072 L29.8400335,23.9925757 L23.794434,23.9926427 C23.788116,23.9352746 23.8201233,23.9022565 23.8387115,23.8650787 C24.7335561,22.0765905 25.6299151,20.2888304 26.5214182,18.4986263 C26.5685674,18.4040438 26.6224002,18.3823091 26.7200405,18.3824651 C28.8037473,18.3850649 30.8875064,18.3821012 32.9712655,18.3856889 C33.7276908,18.3869889 34.3761895,18.1345435 34.8979646,17.5887832 C35.6501083,16.8020169 35.8211094,15.6666628 35.3302972,14.6906796 C34.6743318,13.3860234 34.0072448,12.0869308 33.3446483,10.7856544 L30.54446,5.28754575 C30.5250364,5.24948396 30.5040463,5.21225412 30.4708381,5.1506897 C30.2206283,5.65516439 29.9809658,6.13764437 29.7418775,6.62043632 C28.2427594,9.64785648 26.7434846,12.6752246 25.2459851,15.7034247 C25.2019164,15.7925995 25.1548193,15.8351331 25.0437599,15.834925 L22.0747375,15.8316103 L18.9950733,15.8316493 C18.9993549,15.7695129 19.0344427,15.7252114 19.0583567,15.6775822 C20.7132295,12.3811297 22.3692509,9.08519715 24.0234971,5.78848465 C24.9718612,3.89860243 25.9180845,2.00778426 26.8618539,0.115666166 C26.9032596,0.0326269894 26.9491036,0.00746045126 27.0385463,0.00751244823 C29.387605,0.00985231231 31.736716,0.00995630624 34.0857748,0.00714786564 Z" id="形状结合" fill="#00BE78"></path>
                </g>
            </g>
        </g>
    </g>
</svg>
